<?xml version="1.0" encoding="UTF-8"?>
<svg id="Layer_2" data-name="Layer 2" xmlns="http://www.w3.org/2000/svg" viewBox="0 0 25.36 26.74">
  <g id="Textos">
    <g>
      <path d="m7.33,19.26c.07,0,.14,0,.21,0,3.97,0,7.95,0,11.92,0,.24,0,.5,0,.72.12.41.23.58.59.53,1.04-.04.34-.28.68-.67.82-.18.06-.35.06-.52.06-4.37,0-8.74,0-13.11,0-.22,0-.45,0-.65-.11-.34-.19-.51-.48-.58-.85-.12-.64-.24-1.27-.38-1.9-.08-.36-.16-.73-.23-1.1-.09-.41-.15-.82-.24-1.23-.13-.58-.24-1.17-.36-1.75-.16-.76-.3-1.51-.46-2.27-.11-.54-.23-1.09-.34-1.63-.12-.62-.27-1.23-.36-1.85-.02-.1-.08-.08-.14-.08-.52,0-1.05,0-1.57,0-.24,0-.44-.05-.64-.19-.3-.21-.51-.66-.44-.99.1-.47.43-.79.85-.85.13-.02.26-.02.39-.02.77,0,1.53,0,2.3,0,.4,0,.73.16.95.5.13.2.14.44.2.66.07.29.11.59.17.88.08.38.18.75.24,1.13.02.14.08.14.18.14,1.01,0,2.02,0,3.03,0,.92,0,1.84,0,2.76,0,.05.07.13.02.19.04.24.6.57,1.16.96,1.68.38.5.81.96,1.3,1.36.42.34.85.64,1.32.9.57.31,1.17.53,1.8.69.68.18,1.37.22,2.06.21.38,0,.76-.05,1.13-.11.24-.03.46-.1.69-.15.06-.01.11,0,.19-.02-.13.37-.25.72-.38,1.07-.18.47-.31.95-.54,1.39-.18.35-.5.51-.86.51-4.04,0-8.07,0-12.11,0-.13,0-.16.02-.13.16.12.52.22,1.05.32,1.57.03.13.09.18.22.13.03.06.06.06.09,0Z"/>
      <path d="m18.67,13.67c-1.76.05-3.31-.53-4.63-1.67-1.33-1.16-2.13-2.63-2.32-4.38-.22-2.05.36-3.88,1.76-5.41C14.66.92,16.14.18,17.88.03c1.86-.16,3.55.34,5,1.54,1.48,1.22,2.32,2.82,2.46,4.73.3,4.13-2.92,7.3-6.67,7.38Zm-.83-2.84c-.06.05-.06.11,0,.16-.02.14.06.25.13.35.16.21.39.31.65.25.23-.05.43-.18.52-.42.04-.11.06-.24.06-.37,0-1.03,0-2.06,0-3.09,0-.16.03-.21.2-.21,1.05,0,2.1,0,3.16,0,.46,0,.74-.34.72-.71-.03-.41-.27-.65-.72-.66-1.07-.01-2.14,0-3.2,0-.12,0-.15-.03-.15-.15,0-.98,0-1.96,0-2.93,0-.13,0-.25-.02-.38-.05-.49-.48-.69-.89-.58-.32.08-.46.34-.46.73,0,1.05,0,2.1,0,3.16,0,.12-.03.16-.16.16-1.04,0-2.08,0-3.12,0-.07,0-.14,0-.21,0-.5.04-.8.65-.48,1.07.16.21.36.3.62.29,1.06,0,2.12,0,3.19,0,.12,0,.16.02.16.15,0,1.06,0,2.11,0,3.17Z"/>
      <path d="m18.75,22.64c1.21,0,2.09.92,2.09,2.04,0,1.18-.89,1.97-1.92,2.05-1.31.1-2.21-1.03-2.19-2.06.02-1.1.88-2.04,2.02-2.03Z"/>
      <path d="m4.92,24.66c-.05-1.02.91-2.11,2.15-2.02,1.03.08,1.98.86,1.93,2.15-.04,1.06-.92,1.88-1.94,1.95-1.26.08-2.21-1.02-2.15-2.07Z"/>
    </g>
  </g>
</svg>