<?xml version="1.0" encoding="UTF-8"?>
<svg id="Layer_2" data-name="Layer 2" xmlns="http://www.w3.org/2000/svg" viewBox="0 0 20.91 20.27">
  <g id="Capa_2" data-name="Capa 2">
    <path d="m20.91,3.24v.28c-.07.06-.08.15-.1.23-.13.55-.25,1.1-.37,1.65-.12.51-.24,1.02-.36,1.54-.12.52-.24,1.03-.36,1.55-.11.46-.22.92-.32,1.38-.11.49-.22.98-.33,1.47-.08.36-.16.71-.24,1.07-.08.36-.18.7-.49.95-.24.19-.5.3-.79.3-3.68,0-7.35,0-11.03,0-.11,0-.23.02-.33.07-.28.14-.43.38-.54.66-.06.16-.17.31-.11.5.09.32.25.59.55.76.17.1.36.11.55.11,3.82,0,7.63,0,11.45,0,.19,0,.37,0,.56.05.28.08.56.17.82.33.4.26.71.61.88,1.06.13.34.18.7.13,1.07-.03.28-.11.55-.24.8-.19.35-.46.63-.8.84-.48.3-1,.41-1.56.33-.47-.06-.88-.28-1.22-.59-.31-.28-.52-.63-.64-1.03-.07-.25-.1-.52-.06-.77.05-.35.17-.68.33-.99.04-.08.03-.1-.06-.1-2.57,0-5.15,0-7.72,0-.02,0-.06-.01-.08.01.03.04.05.07.07.1.16.32.24.67.26,1.02.03.45-.08.86-.3,1.25-.2.35-.48.62-.84.83-.45.27-.92.36-1.44.29-.44-.06-.81-.27-1.14-.57-.24-.22-.43-.49-.56-.79-.09-.2-.15-.4-.16-.62-.01-.26.02-.52.06-.77.08-.48.26-.9.69-1.17.07-.05.08-.09.01-.16-.16-.17-.28-.36-.38-.57-.12-.26-.16-.54-.16-.83,0-.23,0-.45.06-.67.08-.4.3-.71.63-.95.12-.08.22-.19.37-.24.09-.02.02-.12.02-.18,0-.19-.1-.36-.11-.54-.01-.16-.08-.31-.1-.46-.04-.22-.11-.44-.15-.66-.05-.26-.12-.52-.17-.77-.08-.4-.18-.8-.27-1.2-.07-.35-.17-.7-.24-1.05-.03-.16-.1-.3-.11-.46,0-.16-.08-.3-.11-.46-.02-.17-.08-.33-.11-.5-.07-.34-.15-.68-.23-1.02-.11-.49-.23-.99-.34-1.48-.11-.51-.23-1.02-.34-1.53-.1-.48-.23-.95-.33-1.43-.02-.1-.06-.11-.14-.11-.74,0-1.48,0-2.22,0-.15,0-.28-.04-.4-.11C0,.79-.07.49.08.27.21.08.42,0,.64,0,1.7,0,2.76,0,3.82,0c.08,0,.1.03.11.09.04.22.08.43.14.65.1.41.19.81.27,1.22.02.1.05.14.17.14,4.79,0,9.59,0,14.38,0,.32,0,.64-.02.95.03.22.04.42.12.6.24.2.13.26.36.37.56.06.1.03.22.11.32Z"/>
  </g>
</svg>